<svg width="4rem" height="3.25rem" viewBox="0 0 221 179" fill="none" xmlns="http://www.w3.org/2000/svg">
			<path d="M199.412 167.871C199.412 161.425 204.038 156.742 210.371 156.742C215.548 156.742 219.072 159.277 220.119 163.739L215.493 164.951C214.832 162.196 212.849 160.819 210.261 160.819C206.792 160.819 204.258 163.684 204.258 167.871C204.258 172.334 207.067 174.978 210.647 174.978C213.731 174.978 216.209 173.215 216.594 170.35H210.481V166.714H221V178.559H216.87V175.199C215.493 177.843 213.07 179 209.82 179C203.818 178.945 199.412 174.482 199.412 167.871Z" fill="#020678"></path>
			<path d="M56.7781 91.0703L34.3092 93.7148C24.2863 95.3676 20.6516 99.6098 20.6516 106.386C20.6516 112.281 25.5529 118.452 36.3468 118.452H65.7547V87.5994C64.3228 89.6378 60.6331 90.6846 56.7781 91.0703ZM65.7547 64.9558C65.7547 59.0607 61.2388 54.3227 52.2623 54.3227H13.8779V36.5273H49.7841C76.108 36.5273 85.9106 50.7967 85.9106 71.2365V135.586H32.4368C13.8779 135.586 0 122.915 0 106.992C0 91.6763 10.7939 81.0432 29.1876 78.3987L53.8594 75.5338C61.6794 74.7625 65.7547 70.8508 65.7547 64.9558Z" fill="#020678"></path>
			<path d="M120.55 28.153V36.5272H145.442V54.2675H120.55V135.531H100.339V30.6322C100.339 11.6248 110.527 0 130.958 0H145.442V17.7402H130.958C125.011 17.7402 120.55 22.2579 120.55 28.153Z" fill="#020678"></path>
			<path d="M191.812 91.0703L169.343 93.7148C159.32 95.3676 155.685 99.6098 155.685 106.386C155.685 112.281 160.587 118.452 171.381 118.452H200.788V87.5994C199.357 89.6378 195.667 90.6846 191.812 91.0703ZM200.788 64.9558C200.788 59.0607 196.273 54.3227 187.296 54.3227H159.816V36.5273H184.873C211.197 36.5273 220.999 50.7967 220.999 71.2365V135.586H167.526C148.967 135.586 135.089 122.915 135.089 106.992C135.089 91.6763 145.883 81.0432 164.276 78.3987L188.948 75.5338C196.713 74.7625 200.788 70.8508 200.788 64.9558Z" fill="#020678"></path>
			<path d="M6.05762 157.128H20.9818V161.315H10.6285V166.273H19.1094V170.46H10.6285V178.559H6.05762V157.128Z" fill="#020678"></path>
			<path d="M170.665 157.128H166.094V178.559H170.665V157.128Z" fill="#020678"></path>
			<path d="M176.502 157.128H181.128L190.711 171.507V157.128H195.171V178.559H190.546L180.963 164.18V178.559H176.502V157.128Z" fill="#020678"></path>
			<path d="M36.0716 153.161C36.0716 151.894 37.0078 150.957 38.3295 150.957C39.5961 150.957 40.5874 151.894 40.5874 153.161C40.5874 154.373 39.5961 155.365 38.3295 155.365C37.0629 155.42 36.0716 154.428 36.0716 153.161ZM29.6834 153.161C29.6834 151.894 30.6196 150.957 31.9413 150.957C33.2079 150.957 34.1992 151.894 34.1992 153.161C34.1992 154.373 33.2079 155.365 31.9413 155.365C30.6196 155.42 29.6834 154.428 29.6834 153.161ZM41.3584 167.871C41.3584 163.684 38.8251 160.929 35.1905 160.929C31.6108 160.929 29.0225 163.684 29.0225 167.871C29.0225 172.058 31.6108 174.813 35.1905 174.813C38.8251 174.758 41.3584 172.058 41.3584 167.871ZM24.1763 167.871C24.1763 161.425 28.8022 156.742 35.1905 156.742C41.5787 156.742 46.2046 161.425 46.2046 167.871C46.2046 174.317 41.5787 179 35.1905 179C28.8573 178.945 24.1763 174.262 24.1763 167.871Z" fill="#020678"></path>
			<path d="M55.4022 166.714H59.918C62.1759 166.714 63.3324 165.722 63.3324 163.904C63.3324 162.086 62.1759 161.094 59.8629 161.094H55.4022V166.714ZM68.8395 174.207V178.449C68.454 178.559 68.0135 178.614 67.5178 178.614C63.9382 178.614 61.3499 177.402 58.8717 171.948L58.2108 170.626H55.2921V178.504H50.7212V157.073H60.3035C64.8744 157.073 68.0134 159.607 68.0134 163.904C68.0134 167.21 66.086 169.303 62.9469 169.964C64.8744 173.601 66.3613 174.262 67.9584 174.262C68.454 174.317 68.6192 174.262 68.8395 174.207Z" fill="#020678"></path>
			<path d="M72.749 172.389C72.749 171.507 72.9142 170.515 73.1896 169.744L77.5953 170.736C77.43 171.176 77.375 171.672 77.375 172.168C77.375 174.041 79.2474 175.198 82.056 175.198C84.5892 175.198 86.1863 174.207 86.1863 172.499C86.1863 171.066 84.9197 170.295 83.2676 170.019L80.459 169.524C75.3924 168.642 73.2997 166.549 73.2997 163.133C73.2997 159.552 76.4388 156.687 81.4502 156.687C87.1776 156.687 90.0413 159.331 90.3717 163.904L85.8559 164.455C85.5255 161.976 84.369 160.433 81.3401 160.433C79.3575 160.433 77.9257 161.37 77.9257 162.857C77.9257 164.4 79.4126 165.116 81.285 165.447L84.0936 165.943C88.8848 166.769 90.7572 168.863 90.7572 172.058C90.7572 176.19 87.2327 178.945 82.0009 178.945C76.0533 178.945 72.749 176.135 72.749 172.389Z" fill="#020678"></path>
			<path d="M105.351 153.161C105.351 151.894 106.287 150.957 107.608 150.957C108.875 150.957 109.866 151.894 109.866 153.161C109.866 154.373 108.875 155.365 107.608 155.365C106.287 155.42 105.351 154.428 105.351 153.161ZM107.168 169.799L104.249 161.48L101.44 169.799H107.168ZM98.9072 153.161C98.9072 151.894 99.8434 150.957 101.165 150.957C102.432 150.957 103.423 151.894 103.423 153.161C103.423 154.373 102.432 155.365 101.165 155.365C99.8985 155.42 98.9072 154.428 98.9072 153.161ZM108.434 173.38H100.284L98.5768 178.504H93.7856L101.44 157.072H107.443L115.098 178.504H110.307L108.434 173.38Z" fill="#020678"></path>
			<path d="M137.567 174.207V178.449C137.181 178.559 136.851 178.614 136.465 178.614C132.776 178.614 130.848 176.961 127.434 171.893L125.837 169.579L123.854 171.893V178.559H119.283V157.128H123.854V167.1L132.005 157.128H137.402L129.416 166.659L131.564 169.744C134.042 173.27 135.144 174.262 136.796 174.262C137.126 174.317 137.402 174.262 137.567 174.207Z" fill="#020678"></path>
			<path d="M147.37 166.714H151.885C154.143 166.714 155.3 165.722 155.3 163.904C155.3 162.086 154.143 161.094 151.83 161.094H147.37V166.714ZM160.862 174.207V178.449C160.476 178.559 160.036 178.614 159.54 178.614C155.961 178.614 153.372 177.402 150.894 171.948L150.233 170.626H147.315V178.504H142.744V157.073H152.326C156.897 157.073 160.036 159.607 160.036 163.904C160.036 167.21 158.108 169.303 154.969 169.964C156.897 173.601 158.384 174.262 159.981 174.262C160.421 174.317 160.642 174.262 160.862 174.207Z" fill="#020678"></path>
			</svg>